<svg width="342" height="63" viewBox="0 0 342 63" fill="none" xmlns="http://www.w3.org/2000/svg">
<path d="M0.933789 4.71H27.2588V12.9H10.2288V21.545H24.3338V29.475H10.2288V39.81H27.2588V48H0.933789V4.71ZM43.492 48.975C40.0254 48.975 37.2737 47.5017 35.237 44.555C33.2004 41.6083 32.182 37.6 32.182 32.53C32.182 26.3767 33.742 21.6967 36.862 18.49C39.982 15.24 44.467 13.615 50.317 13.615C53.6104 13.615 57.467 14.135 61.887 15.175V48H53.177L53.372 42.67H53.112C51.9854 44.7067 50.5987 46.2667 48.952 47.35C47.3487 48.4333 45.5287 48.975 43.492 48.975ZM45.442 40.98C46.7854 40.98 48.107 40.265 49.407 38.835C50.707 37.405 51.9204 35.4983 53.047 33.115V22.195C51.6604 21.805 50.2737 21.61 48.887 21.61C46.287 21.61 44.3154 22.4983 42.972 24.275C41.672 26.0517 41.022 28.6733 41.022 32.14C41.022 34.87 41.412 37.0367 42.192 38.64C42.972 40.2 44.0554 40.98 45.442 40.98ZM79.6737 48.975C77.5503 48.975 75.492 48.7583 73.4987 48.325C71.5487 47.8917 69.8803 47.3067 68.4937 46.57L69.3387 38.77C70.812 39.68 72.437 40.4167 74.2137 40.98C75.9903 41.5433 77.6587 41.825 79.2187 41.825C80.692 41.825 81.927 41.565 82.9237 41.045C83.9203 40.4817 84.4187 39.68 84.4187 38.64C84.4187 37.8167 84.072 37.1883 83.3787 36.755C82.6853 36.2783 81.3637 35.6933 79.4137 35L77.6587 34.35C75.7953 33.6567 74.2787 33.0067 73.1087 32.4C71.9387 31.75 70.877 30.775 69.9237 29.475C68.9703 28.175 68.4937 26.4633 68.4937 24.34C68.4937 20.96 69.7503 18.3383 72.2637 16.475C74.8203 14.5683 78.1353 13.615 82.2087 13.615C85.4153 13.615 88.7953 14.2433 92.3487 15.5L91.1137 23.235C89.857 22.4983 88.427 21.9133 86.8237 21.48C85.2637 21.0033 83.7903 20.765 82.4037 20.765C80.9737 20.765 79.8253 21.0033 78.9587 21.48C78.1353 21.9567 77.7237 22.65 77.7237 23.56C77.7237 24.4267 78.0703 25.0767 78.7637 25.51C79.457 25.9433 80.627 26.4417 82.2737 27.005C83.5737 27.4817 84.332 27.7633 84.5487 27.85C86.3687 28.5867 87.8853 29.3017 89.0987 29.995C90.312 30.6883 91.3737 31.7283 92.2837 33.115C93.1937 34.4583 93.6487 36.1917 93.6487 38.315C93.6487 41.8683 92.3703 44.5333 89.8137 46.31C87.257 48.0867 83.877 48.975 79.6737 48.975ZM105.202 62.56C103.209 62.56 101.129 62.0833 98.9624 61.13L100.327 53.59C101.974 54.4133 103.361 54.825 104.487 54.825C105.831 54.825 106.827 54.3917 107.477 53.525C108.171 52.6583 108.907 51.1417 109.687 48.975L96.6224 14.655L106.112 13.875L114.107 37.86L121.517 14.525H130.552C127.779 22.9317 124.854 31.2083 121.777 39.355C118.744 47.5017 116.382 53.0917 114.692 56.125C113.479 58.2917 112.114 59.895 110.597 60.935C109.124 62.0183 107.326 62.56 105.202 62.56ZM137.812 50.21C135.992 50.21 134.41 49.5383 133.067 48.195C131.767 46.895 131.117 45.335 131.117 43.515C131.117 41.6517 131.767 40.07 133.067 38.77C134.41 37.4267 135.992 36.755 137.812 36.755C139.675 36.755 141.257 37.4267 142.557 38.77C143.857 40.07 144.507 41.6517 144.507 43.515C144.507 45.335 143.857 46.895 142.557 48.195C141.257 49.5383 139.675 50.21 137.812 50.21ZM162.768 17.45L160.038 48H151.653L155.748 4.71H167.448L178.498 35.78L189.223 4.71H200.923L204.888 48H196.438L193.448 17.58L182.008 48.455L174.273 49.17L162.768 17.45ZM227.646 48.975C224.266 48.975 221.276 48.2383 218.676 46.765C216.12 45.2917 214.126 43.2333 212.696 40.59C211.266 37.9033 210.551 34.805 210.551 31.295C210.551 27.785 211.245 24.7083 212.631 22.065C214.061 19.3783 216.055 17.2983 218.611 15.825C221.211 14.3517 224.201 13.615 227.581 13.615C230.961 13.615 233.93 14.3517 236.486 15.825C239.086 17.255 241.08 19.2917 242.466 21.935C243.896 24.5783 244.611 27.6333 244.611 31.1C244.611 34.61 243.896 37.73 242.466 40.46C241.08 43.1467 239.086 45.2483 236.486 46.765C233.93 48.2383 230.983 48.975 227.646 48.975ZM227.581 41.045C229.921 41.045 231.785 40.1567 233.171 38.38C234.601 36.56 235.316 34.1767 235.316 31.23C235.316 28.2833 234.601 25.9433 233.171 24.21C231.785 22.4333 229.921 21.545 227.581 21.545C225.241 21.545 223.356 22.4333 221.926 24.21C220.54 25.9433 219.846 28.2833 219.846 31.23C219.846 34.1767 220.54 36.56 221.926 38.38C223.356 40.1567 225.241 41.045 227.581 41.045ZM247.187 14.655L257.197 13.745L264.607 37.86L271.692 14.525H281.507L269.742 48H259.017L247.187 14.655ZM290.852 0.549999H301.317V9H290.852V0.549999ZM285.782 40.135H292.022V22.39H285.782V14.525H301.187V40.135H306.777V48H285.782V40.135ZM328.01 48.975C322.594 48.975 318.325 47.415 315.205 44.295C312.129 41.175 310.59 36.8417 310.59 31.295C310.59 27.6983 311.262 24.5783 312.605 21.935C313.949 19.2483 315.834 17.19 318.26 15.76C320.73 14.33 323.612 13.615 326.905 13.615C331.759 13.615 335.485 15.175 338.085 18.295C340.685 21.415 341.985 25.9217 341.985 31.815C341.985 32.8117 341.964 33.5483 341.92 34.025H319.82C320.254 36.3217 321.25 38.0767 322.81 39.29C324.37 40.46 326.472 41.045 329.115 41.045C330.719 41.045 332.387 40.85 334.12 40.46C335.854 40.0267 337.37 39.4633 338.67 38.77L340.165 46.115C338.432 47.025 336.504 47.7183 334.38 48.195C332.3 48.715 330.177 48.975 328.01 48.975ZM333.21 27.135C333.08 25.2717 332.43 23.7983 331.26 22.715C330.09 21.5883 328.53 21.025 326.58 21.025C324.717 21.025 323.179 21.5667 321.965 22.65C320.795 23.7333 320.059 25.2283 319.755 27.135H333.21Z" fill="#E50C17"/>
</svg>
